<svg  xmlns="http://www.w3.org/2000/svg" viewBox="0 0 661.814 84.117"><defs><style>.a{fill:#fff;}</style></defs><title>MacBook Pro</title><path class="a" d="M70.583,81.241l.174-57.5-.393,0L46.775,81.169l-9.883-.03L13.65,23.568h-.393l-.174,57.5L0,81.027.245,0,17.034.051l24.633,61.9h.449L67.122.2l16.733.05L83.611,81.28Z"/><path class="a" d="M92.811,64.293c.032-10.557,8.193-16.877,22.682-17.731l15.726-.851.012-4.268c.019-6.233-4.181-9.839-11.088-9.861-6.626-.02-10.847,3.169-11.76,8.107L95.412,39.65c.651-11.116,10.165-19.061,25.326-19.015,14.768.045,24.346,7.878,24.31,19.839l-.124,40.991-13.476-.04.029-9.489H131.2c-3.445,6.446-10.925,10.41-18.562,10.387C101.123,82.287,92.778,75.019,92.811,64.293Zm38.367-4.937.013-4.548-13.759.8c-6.74.429-10.624,3.451-10.638,8.167-.015,4.885,4.019,7.986,10.083,8C124.8,71.8,131.156,66.544,131.178,59.356Z"/><path class="a" d="M195.517,43.321c-1.1-6.348-5.525-11.134-12.993-11.157-8.816-.026-14.51,7.368-14.547,19.609-.037,12.466,5.669,19.671,14.541,19.7,7.074.021,11.691-4.007,13-10.742l13.2.04c-1.163,13.3-11.467,22.033-26.4,21.988-17.408-.053-28.6-11.71-28.545-31.027.058-19.035,11.323-30.961,28.618-30.909,15.723.047,25.407,10.016,26.324,22.54Z"/><path class="a" d="M218.366,81.687,218.611.659l33.635.1c14.711.044,24.175,7.99,24.138,20.287a17.974,17.974,0,0,1-14.819,17.589l0,.449c11,1.1,18.671,9.04,18.639,19.765-.043,14.262-10.571,22.991-27.865,22.938Zm30.692-11.194c10.67.032,16.355-4.387,16.379-12.7.025-8.255-5.8-12.6-16.92-12.63l-15.555-.047-.076,25.325Zm-16.064-35.65,13.252.04c10.107.03,15.792-4.22,15.814-11.743.022-7.077-4.851-11.078-13.5-11.1l-15.5-.047Z"/><path class="a" d="M286.676,52.132c.058-19.2,11.549-30.961,28.9-30.909s28.771,11.823,28.713,31.083c-.059,19.316-11.437,30.905-28.9,30.852S286.618,71.448,286.676,52.132Zm43.406.131c.038-12.635-5.666-19.895-14.54-19.922-8.815-.027-14.622,7.2-14.66,19.834-.038,12.69,5.669,19.895,14.54,19.922S330.043,64.953,330.082,52.263Z"/><path class="a" d="M350.8,52.325c.058-19.2,11.549-30.961,28.9-30.908S408.47,33.24,408.412,52.5c-.059,19.316-11.437,30.905-28.9,30.853S350.741,71.642,350.8,52.325Zm43.406.132c.038-12.635-5.666-19.9-14.539-19.922-8.816-.027-14.623,7.2-14.661,19.833-.038,12.691,5.669,19.9,14.54,19.923S394.167,65.147,394.205,52.457Z"/><path class="a" d="M454.43,22.878l16.116.048L446.661,48.46l24.715,33.99L455.205,82.4,436.471,56.908l-4.731,4.759-.063,20.664L417.7,82.289l.245-81.028,13.982.042-.14,46.326h.168Z"/><path class="a" d="M533.1,1.608c16.116.049,27.257,11.033,27.208,27.2S548.718,55.9,532.322,55.851l-16.4-.05-.081,26.784-14.486-.044L501.6,1.514ZM515.96,44.121l13.141.04c10.388.031,16.469-5.566,16.5-15.393.029-9.714-5.963-15.291-16.35-15.323l-13.2-.04Z"/><path class="a" d="M569.479,23.225l13.42.041-.031,10.387h.281c2.043-7.237,7.278-11.377,14.3-11.355a19.89,19.89,0,0,1,4.378.574l-.038,12.634a17.769,17.769,0,0,0-5.669-.8c-7.917-.024-12.7,5.07-12.731,13.438l-.1,34.645L569.3,82.746Z"/><path class="a" d="M604.2,53.091c.057-19.2,11.548-30.962,28.9-30.909s28.771,11.823,28.712,31.083c-.059,19.316-11.437,30.905-28.9,30.852S604.143,72.407,604.2,53.091Zm43.406.131c.038-12.635-5.668-19.9-14.539-19.922-8.817-.027-14.622,7.2-14.66,19.834-.038,12.69,5.667,19.894,14.54,19.922S647.57,65.912,647.608,53.222Z"/></svg>